<?xml version="1.0" encoding="UTF-8"?>
<!DOCTYPE svg PUBLIC "-//W3C//DTD SVG 1.1//EN" "http://www.w3.org/Graphics/SVG/1.1/DTD/svg11.dtd">
<svg version="1.1" xmlns="http://www.w3.org/2000/svg" xmlns:xlink="http://www.w3.org/1999/xlink" x="0" y="0" width="24" height="24" viewBox="0, 0, 24, 24">
  <g id="Layer_1">
    <path d="M16.069,9.002 C14.848,8.102 13.459,9.095 13.532,10.738 C13.641,13.193 16.994,13.695 17.115,16.407 C17.249,19.441 14.178,19.35 13.295,16.956" fill-opacity="0" stroke="#000000" stroke-width="1" stroke-linecap="round" stroke-linejoin="round"/>
    <path d="M7.143,4.863 C5.029,10.259 7.405,25.547 11.653,15.221" fill-opacity="0" stroke="#000000" stroke-width="1" stroke-linecap="round" stroke-linejoin="round"/>
    <path d="M3.854,9.561 C5.452,9.819 7.16,9.803 8.822,9.808" fill-opacity="0" stroke="#000000" stroke-width="1" stroke-linecap="round" stroke-linejoin="round"/>
    <path d="M17.375,21.712 C22.004,22.136 18.531,15.02 20.537,12.966 C20.678,12.822 24.045,12.463 23.596,11.793 C22.991,10.891 21.24,11.566 20.439,10.113 C18.668,6.898 22.058,2.755 17.527,1.853" fill-opacity="0" stroke="#000000" stroke-width="1" stroke-linecap="round" stroke-linejoin="round"/>
  </g>
</svg>
