<?xml version="1.0" encoding="UTF-8"?>
<!DOCTYPE svg PUBLIC "-//W3C//DTD SVG 1.1//EN" "http://www.w3.org/Graphics/SVG/1.1/DTD/svg11.dtd">
<svg version="1.1" xmlns="http://www.w3.org/2000/svg" xmlns:xlink="http://www.w3.org/1999/xlink" x="0" y="0" width="24" height="24" viewBox="0, 0, 24, 24">
  <g id="Layer_1">
    <path d="M16.768,11.833 C16.226,10.225 14.316,10.241 13.33,11.792 C11.855,14.109 14.607,16.722 12.978,19.281 C11.156,22.144 8.399,20.088 9.125,17.33" fill-opacity="0" stroke="#000000" stroke-width="2" stroke-linecap="round" stroke-linejoin="round"/>
    <path d="M11.054,2.182 C5.657,5.763 -1.968,21.279 8.548,14.558" fill-opacity="0" stroke="#000000" stroke-width="2" stroke-linecap="round" stroke-linejoin="round"/>
    <path d="M3.964,3.772 C5.838,5.27 7.934,6.734 9.97,8.17" fill-opacity="0" stroke="#000000" stroke-width="2" stroke-linecap="round" stroke-linejoin="round"/>
    <path d="M17.375,21.712 C22.004,22.136 18.531,15.02 20.537,12.966 C20.678,12.822 24.045,12.463 23.596,11.793 C22.991,10.891 21.24,11.566 20.439,10.113 C18.668,6.898 22.058,2.755 17.527,1.853" fill-opacity="0" stroke="#000000" stroke-width="1.5" stroke-linecap="round" stroke-linejoin="round"/>
  </g>
</svg>
